<?xml version="1.0" encoding="utf-8"?>
<!-- Generator: Adobe Illustrator 28.0.0, SVG Export Plug-In . SVG Version: 6.00 Build 0)  -->
<svg version="1.1" id="Layer_1" xmlns="http://www.w3.org/2000/svg" xmlns:xlink="http://www.w3.org/1999/xlink" x="0px" y="0px"
	 viewBox="0 0 1350 1350" style="enable-background:new 0 0 1350 1350;" xml:space="preserve">
<style type="text/css">
	.st0{fill:#19283F;}
	.st1{fill:#31E981;}
</style>
<g id="BG">
	<path class="st0" d="M200,0h950c110.5,0,200,89.5,200,200v950c0,110.5-89.5,200-200,200H200c-110.5,0-200-89.5-200-200V200
		C0,89.5,89.5,0,200,0z"/>
</g>
<g id="Logomark">
	<g>
		<circle class="st1" cx="508.1" cy="1008.7" r="83.4"/>
		<path class="st1" d="M567.1,616c-15.1-15.1-35.9-24.4-59-24.4c-46.1,0-83.4,37.4-83.4,83.4c0,23,9.3,43.9,24.4,59l333.7,333.7
			c15.1,15.1,35.9,24.4,59,24.4c46.1,0,83.4-37.4,83.4-83.4c0-23-9.3-43.9-24.4-59L567.1,616z"/>
		<path class="st1" d="M782.9,734c15.1,15.1,35.9,24.4,59,24.4c46.1,0,83.4-37.4,83.4-83.4c0-23-9.3-43.9-24.4-59L567.1,282.3
			c-15.1-15.1-35.9-24.4-59-24.4c-46.1,0-83.4,37.4-83.4,83.4c0,23,9.3,43.9,24.4,59L782.9,734L782.9,734z"/>
	</g>
</g>
</svg>
