<?xml version="1.0" encoding="utf-8"?>
<!-- Generator: Adobe Illustrator 28.0.0, SVG Export Plug-In . SVG Version: 6.00 Build 0)  -->
<svg version="1.1" id="Layer_2_00000172414422560518399150000017842449933769127305_"
	 xmlns="http://www.w3.org/2000/svg" xmlns:xlink="http://www.w3.org/1999/xlink" x="0px" y="0px" viewBox="0 0 800 298.7"
	 style="enable-background:new 0 0 800 298.7;" xml:space="preserve">
<style type="text/css">
	.st0{fill:#FCFCFC;}
	.st1{fill:#31E981;}
</style>
<g id="Logo">
	<g>
		<path class="st0" d="M306.7,221.3c13.3,0,18.7,8,21.3,16h18.7c-2.7-18.7-18.7-32-40-32c-26.7,0-42.7,21.3-42.7,45.3
			s16,45.3,42.7,45.3c24,0,37.3-13.3,40-32H328c-2.7,8-10.7,16-21.3,16c-16,0-26.7-13.3-26.7-32C280,234.7,290.7,221.3,306.7,221.3
			L306.7,221.3z"/>
		<path class="st0" d="M378.7,245.3v-16h-16V296h18.7v-29.3c0-13.3,8-21.3,18.7-21.3c2.7,0,2.7,0,5.3,0v-16c0,0-2.7,0-5.3,0
			C386.7,229.3,381.3,234.7,378.7,245.3L378.7,245.3z"/>
		<path class="st0" d="M440,229.3c-18.7,0-32,16-32,34.7s13.3,34.7,34.7,34.7c16,0,26.7-8,29.3-21.3h-16c-2.7,5.3-5.3,8-16,8
			s-16-8-16-18.7h48V264C472,242.7,461.3,229.3,440,229.3z M426.7,256c0-8,5.3-16,13.3-16s13.3,5.3,16,13.3h-29.3V256z"/>
		<path class="st0" d="M514.7,229.3c-16,0-26.7,8-29.3,21.3h16c0-5.3,5.3-8,13.3-8s10.7,5.3,10.7,10.7v2.7h-16
			c-16,0-26.7,8-26.7,21.3s8,21.3,24,21.3c10.7,0,16-5.3,18.7-10.7v8h16v-42.7C544,237.3,533.3,229.3,514.7,229.3L514.7,229.3z
			 M528,272c0,10.7-5.3,16-13.3,16s-10.7-2.7-10.7-10.7c0-5.3,5.3-8,13.3-8h13.3v2.7H528z"/>
		<path class="st0" d="M581.3,272v-29.3h16v-13.3h-16v-16h-18.7V232H552v13.3h10.7v29.3c0,16,8,24,21.3,24c5.3,0,10.7,0,13.3-2.7
			v-13.3c-2.7,0-5.3,0-8,0C584,282.7,581.3,280,581.3,272L581.3,272z"/>
		<rect x="610.7" y="202.7" class="st0" width="18.7" height="16"/>
		<rect x="610.7" y="229.3" class="st0" width="18.7" height="66.7"/>
		<polygon class="st0" points="672,277.3 656,229.3 637.3,229.3 664,296 680,296 704,229.3 688,229.3 		"/>
		<path class="st0" d="M744,229.3c-18.7,0-32,16-32,34.7s13.3,34.7,34.7,34.7c16,0,26.7-8,29.3-21.3h-16c-2.7,5.3-5.3,8-16,8
			s-16-8-16-18.7h48V264C776,242.7,762.7,229.3,744,229.3z M728,256c0-8,5.3-16,16-16s13.3,5.3,16,13.3h-32V256z"/>
		<path class="st0" d="M285.3,114.7h16l16,34.7h21.3L320,112c13.3-2.7,21.3-13.3,21.3-26.7c0-16-13.3-26.7-32-26.7h-42.7v90.7h18.7
			V114.7L285.3,114.7z M285.3,74.7h24c10.7,0,16,5.3,16,13.3s-5.3,13.3-16,13.3h-24V74.7z"/>
		<path class="st0" d="M397.3,138.7v8h16V104c0-16-10.7-24-29.3-24c-16,0-26.7,8-29.3,21.3h18.7c0-5.3,5.3-8,13.3-8
			s10.7,5.3,10.7,10.7v2.7h-16c-16,0-26.7,8-26.7,21.3s8,21.3,24,21.3C386.7,149.3,394.7,144,397.3,138.7L397.3,138.7z M370.7,128
			c0-5.3,5.3-8,13.3-8h13.3v5.3c0,10.7-5.3,16-13.3,16C376,138.7,370.7,133.3,370.7,128z"/>
		<path class="st0" d="M448,109.3c0-8,5.3-13.3,13.3-13.3s10.7,5.3,10.7,13.3v40h18.7v-40c0-8,5.3-13.3,13.3-13.3
			s10.7,5.3,10.7,13.3v40h18.7v-42.7c0-16-8-26.7-24-26.7c-10.7,0-16,5.3-21.3,10.7c-5.3-5.3-13.3-10.7-21.3-10.7
			c-10.7,0-16,5.3-18.7,10.7v-8h-16v66.7h18.7L448,109.3L448,109.3z"/>
		<path class="st0" d="M576,80c-21.3,0-34.7,16-34.7,34.7s13.3,34.7,34.7,34.7s34.7-16,34.7-34.7S594.7,80,576,80z M576,136
			c-10.7,0-16-10.7-16-21.3s5.3-21.3,16-21.3s16,10.7,16,21.3S586.7,136,576,136z"/>
		<circle class="st1" cx="29.3" cy="266.7" r="29.3"/>
		<path class="st1" d="M50.7,128c-5.3-5.3-13.3-10.7-21.3-10.7c-16,0-29.3,13.3-29.3,32c0,8,2.7,16,8,21.3L125.3,288
			c8,5.3,13.3,8,24,8c16,0,29.3-13.3,29.3-29.3c0-8-2.7-16-8-21.3L50.7,128z"/>
		<path class="st1" d="M50.7,8c-5.3-5.3-13.3-8-21.3-8C13.3,0,0,13.3,0,29.3c0,8,2.7,16,8,21.3L125.3,168c8,5.3,13.3,10.7,24,10.7
			c16,0,29.3-13.3,29.3-29.3c0-8-2.7-16-8-21.3L50.7,8z"/>
		<polygon class="st0" points="778.7,208 781.3,208 781.3,218.7 784,218.7 784,208 786.7,208 786.7,208 		"/>
		<polygon class="st0" points="797.3,208 794.7,216 792,208 789.3,208 789.3,218.7 792,218.7 792,210.7 794.7,218.7 794.7,218.7 
			797.3,210.7 797.3,218.7 800,218.7 800,208 		"/>
	</g>
</g>
</svg>
